<svg id="visual" viewBox="0 0 1200 100" width="1200" height="100" xmlns="http://www.w3.org/2000/svg" xmlns:xlink="http://www.w3.org/1999/xlink" version="1.1"><path d="M0 44L28.5 45.2C57 46.3 114 48.7 171.2 44.7C228.3 40.7 285.7 30.3 342.8 29.7C400 29 457 38 514.2 44.5C571.3 51 628.7 55 685.8 51.8C743 48.7 800 38.3 857.2 32.7C914.3 27 971.7 26 1028.8 30C1086 34 1143 43 1171.5 47.5L1200 52L1200 101L1171.5 101C1143 101 1086 101 1028.8 101C971.7 101 914.3 101 857.2 101C800 101 743 101 685.8 101C628.7 101 571.3 101 514.2 101C457 101 400 101 342.8 101C285.7 101 228.3 101 171.2 101C114 101 57 101 28.5 101L0 101Z" fill="#002233" stroke-linecap="round" stroke-linejoin="miter"></path></svg>